<svg width="32" height="32" viewBox="0 0 300 300" xmlns="http://www.w3.org/2000/svg">
  <defs>
    <linearGradient id="infGrad" x1="0%" y1="0%" x2="100%" y2="100%">
      <stop offset="0%" stop-color="#7C3AED"/> <!-- Violet 600 -->
      <stop offset="100%" stop-color="#2563EB"/> <!-- Blue 600 -->
    </linearGradient>

    <linearGradient id="sGrad" x1="0%" y1="0%" x2="100%" y2="0%">
      <stop offset="0%" stop-color="#DB2777"/> <!-- Pink 600 -->
      <stop offset="100%" stop-color="#F472B6"/> <!-- Pink 400 -->
    </linearGradient>
  </defs>

  <!-- Horizontal Infinity -->
  <path d="
    M50,150
    C50,100 135,100 150,150
    C165,200 250,200 250,150
    C250,100 165,100 150,150
    C135,200 50,200 50,150
  " fill="none" stroke="url(#infGrad)" stroke-width="15" stroke-linecap="round"/>

  <!-- Vertical Infinity -->
  <path d="
    M150,50
    C100,50 100,135 150,150
    C200,165 200,250 150,250
    C100,250 100,165 150,150
    C200,135 200,50 150,50
  " fill="none" stroke="url(#infGrad)" stroke-width="15" stroke-linecap="round"/>

  <!-- Vertical S highlight -->
  <path d="
    M150,50
    C100,50 100,135 150,150
    C200,165 200,250 150,250
  " fill="none" stroke="url(#sGrad)" stroke-width="18" stroke-linecap="round"/>

  <!-- Horizontal S highlight -->
  <path d="
    M50,150
    C50,200 135,200 150,150
    C165,100 250,100 250,150
  " fill="none" stroke="url(#sGrad)" stroke-width="18" stroke-linecap="round"/>

  <!-- Center white circle (scaled down) -->
  <circle cx="150" cy="150" r="12" fill="#2563EB"/>
  <circle cx="150" cy="150" r="10" fill="white"/>
</svg>
